<?xml version="1.0" encoding="UTF-8" standalone="no"?>
<!-- Created with Inkscape (http://www.inkscape.org/) -->

<svg
   xmlns:dc="http://purl.org/dc/elements/1.1/"
   xmlns:cc="http://creativecommons.org/ns#"
   xmlns:rdf="http://www.w3.org/1999/02/22-rdf-syntax-ns#"
   xmlns:svg="http://www.w3.org/2000/svg"
   xmlns="http://www.w3.org/2000/svg"
   xmlns:xlink="http://www.w3.org/1999/xlink"
   xmlns:sodipodi="http://sodipodi.sourceforge.net/DTD/sodipodi-0.dtd"
   xmlns:inkscape="http://www.inkscape.org/namespaces/inkscape"
   width="550"
   height="550"
   viewBox="0 0 145.52082 145.52083"
   version="1.1"
   id="svg8"
   inkscape:version="0.92.1 r15371"
   sodipodi:docname="iconoFull_gris.svg">
  <defs
     id="defs2">
    <linearGradient
       inkscape:collect="always"
       id="linearGradient4594">
      <stop
         style="stop-color:#6f6f6f;stop-opacity:1"
         offset="0"
         id="stop4590" />
      <stop
         id="stop4602"
         offset="0.14416479"
         style="stop-color:#878787;stop-opacity:1" />
      <stop
         style="stop-color:#909090;stop-opacity:1"
         offset="0.80778027"
         id="stop4604" />
      <stop
         style="stop-color:#707070;stop-opacity:1"
         offset="1"
         id="stop4592" />
    </linearGradient>
    <linearGradient
       gradientTransform="translate(154.09768,1.4665818)"
       inkscape:collect="always"
       xlink:href="#linearGradient4594"
       id="linearGradient4600-7"
       x1="72.430038"
       y1="172.71965"
       x2="72.430038"
       y2="289.51645"
       gradientUnits="userSpaceOnUse" />
    <filter
       style="color-interpolation-filters:sRGB;"
       inkscape:label="Drop Shadow"
       id="filter4790">
      <feFlood
         flood-opacity="0.498039"
         flood-color="rgb(66,66,66)"
         result="flood"
         id="feFlood4780" />
      <feComposite
         in="flood"
         in2="SourceGraphic"
         operator="out"
         result="composite1"
         id="feComposite4782" />
      <feGaussianBlur
         in="composite1"
         stdDeviation="1.5"
         result="blur"
         id="feGaussianBlur4784" />
      <feOffset
         dx="0"
         dy="2"
         result="offset"
         id="feOffset4786" />
      <feComposite
         in="offset"
         in2="SourceGraphic"
         operator="atop"
         result="fbSourceGraphic"
         id="feComposite4788" />
      <feColorMatrix
         result="fbSourceGraphicAlpha"
         in="fbSourceGraphic"
         values="0 0 0 -1 0 0 0 0 -1 0 0 0 0 -1 0 0 0 0 1 0"
         id="feColorMatrix4926" />
      <feFlood
         id="feFlood4928"
         flood-opacity="0.498039"
         flood-color="rgb(255,255,255)"
         result="flood"
         in="fbSourceGraphic" />
      <feComposite
         in2="fbSourceGraphic"
         id="feComposite4930"
         in="flood"
         operator="in"
         result="composite1" />
      <feGaussianBlur
         id="feGaussianBlur4932"
         in="composite1"
         stdDeviation="0.8"
         result="blur" />
      <feOffset
         id="feOffset4934"
         dx="0"
         dy="0.8"
         result="offset" />
      <feComposite
         in2="offset"
         id="feComposite4936"
         in="fbSourceGraphic"
         operator="over"
         result="composite2" />
    </filter>
    <filter
       style="color-interpolation-filters:sRGB;"
       inkscape:label="Drop Shadow"
       id="filter4948">
      <feFlood
         flood-opacity="0.498039"
         flood-color="rgb(255,255,255)"
         result="flood"
         id="feFlood4938" />
      <feComposite
         in="flood"
         in2="SourceGraphic"
         operator="in"
         result="composite1"
         id="feComposite4940" />
      <feGaussianBlur
         in="composite1"
         stdDeviation="0.8"
         result="blur"
         id="feGaussianBlur4942" />
      <feOffset
         dx="0"
         dy="0.8"
         result="offset"
         id="feOffset4944" />
      <feComposite
         in="SourceGraphic"
         in2="offset"
         operator="over"
         result="fbSourceGraphic"
         id="feComposite4946" />
      <feColorMatrix
         result="fbSourceGraphicAlpha"
         in="fbSourceGraphic"
         values="0 0 0 -1 0 0 0 0 -1 0 0 0 0 -1 0 0 0 0 1 0"
         id="feColorMatrix4998" />
      <feFlood
         id="feFlood5000"
         flood-opacity="0.498039"
         flood-color="rgb(66,66,66)"
         result="flood"
         in="fbSourceGraphic" />
      <feComposite
         in2="fbSourceGraphic"
         id="feComposite5002"
         in="flood"
         operator="out"
         result="composite1" />
      <feGaussianBlur
         id="feGaussianBlur5004"
         in="composite1"
         stdDeviation="1.5"
         result="blur" />
      <feOffset
         id="feOffset5006"
         dx="0"
         dy="2"
         result="offset" />
      <feComposite
         in2="fbSourceGraphic"
         id="feComposite5008"
         in="offset"
         operator="atop"
         result="composite2" />
    </filter>
  </defs>
  <sodipodi:namedview
     id="base"
     pagecolor="#ffffff"
     bordercolor="#666666"
     borderopacity="1.0"
     inkscape:pageopacity="0.0"
     inkscape:pageshadow="2"
     inkscape:zoom="0.49497475"
     inkscape:cx="-22.514844"
     inkscape:cy="94.304606"
     inkscape:document-units="mm"
     inkscape:current-layer="layer1"
     showgrid="false"
     units="px"
     inkscape:pagecheckerboard="false"
     showguides="false"
     inkscape:snap-bbox="false"
     inkscape:object-paths="false"
     inkscape:snap-grids="true"
     inkscape:snap-others="true"
     inkscape:snap-nodes="false"
     inkscape:window-width="1600"
     inkscape:window-height="835"
     inkscape:window-x="0"
     inkscape:window-y="0"
     inkscape:window-maximized="1">
    <inkscape:grid
       type="xygrid"
       id="grid3699" />
  </sodipodi:namedview>
  <metadata
     id="metadata5">
    <rdf:RDF>
      <cc:Work
         rdf:about="">
        <dc:format>image/svg+xml</dc:format>
        <dc:type
           rdf:resource="http://purl.org/dc/dcmitype/StillImage" />
        <dc:title />
      </cc:Work>
    </rdf:RDF>
  </metadata>
  <g
     inkscape:label="Capa 1"
     inkscape:groupmode="layer"
     id="layer1"
     transform="translate(0,-151.47916)"
     style="display:inline">
    <g
       id="g5019"
       style="opacity:0.3">
      <g
         transform="translate(-149.75455,-6.9031516)"
         style="stroke:#dadada;stroke-opacity:1;opacity:1;filter:url(#filter4790)"
         id="g5059">
        <path
           id="path4559-2"
           style="fill:url(#linearGradient4600-7);fill-opacity:1;fill-rule:nonzero;stroke:#dadada;stroke-width:0.26458332px;stroke-linecap:butt;stroke-linejoin:miter;stroke-opacity:1"
           d="m 262.48236,285.42639 c 0,0 -0.78838,7.55003 -9.26042,6.61459 -8.47204,-0.93545 -9.26042,-10.58334 -9.26042,-10.58334 l -63.86454,0.24573 0.25777,-100.1058 c 0,0 0.48554,-7.63262 8.31155,-7.9375 25.90961,-1.00938 78.25253,-1.0825 78.25253,-1.0825 0,0 -4.10239,5.50556 -4.23602,8.80613 -0.13364,3.30058 -0.20045,104.04269 -0.20045,104.04269 z M 160.5879,283.74314 h 82.31901 c 0,0 1.06719,4.88785 4.14268,8.15172 0,0 -76.1734,0.2517 -80.98267,-0.13363 -4.80927,-0.38533 -5.47902,-8.01809 -5.47902,-8.01809 z m 104.68203,-102.77991 17.15066,0.0472 c 0,0 0.22101,-8.13734 -8.22098,-8.22099 -8.44199,-0.0837 -8.92968,8.17374 -8.92968,8.17374 z"
           inkscape:connector-curvature="0"
           sodipodi:nodetypes="cccccsccccccscccccc" />
        <path
           id="path4537-9"
           style="fill:none;fill-opacity:1;stroke:#dadada;stroke-width:2.48046875;stroke-linecap:butt;stroke-linejoin:round;stroke-miterlimit:4;stroke-dasharray:none;stroke-dashoffset:0;stroke-opacity:1"
           d="m 167.32685,293.17491 c 0,0 -7.9375,0 -7.9375,-10.58333 l 84.28869,-0.14175 c 0,0 1.03943,10.72508 10.96131,10.72508 9.92187,0 8.88244,-10.72508 8.88244,-10.72508 l 0.37797,-100.39992 c 0,0 10e-5,-10.21876 9.99679,-10.47314 9.84696,-0.25056 9.84696,10.47314 9.84696,10.47314 l -18.89881,-0.14174 m -97.51785,111.26674 h 87.3125 m 18.52083,-121.70834 c 0,0 -74.08333,0.66145 -83.93029,0.91201 -9.99669,0.25438 -9.99679,9.67133 -9.99679,9.67133 l -0.37797,100.39992"
           inkscape:connector-curvature="0"
           sodipodi:nodetypes="cccsccccccccscc" />
      </g>
      <g
         style="stroke:#dadada;stroke-opacity:1"
         transform="translate(4.2763125,2.5999771)"
         id="g893">
        <path
           style="fill:none;stroke:#dadada;stroke-width:1.5;stroke-linecap:butt;stroke-linejoin:miter;stroke-miterlimit:4;stroke-dasharray:none;stroke-opacity:1"
           d="m 103.56548,251.83183 -74.272329,0.18899"
           id="path860"
           inkscape:connector-curvature="0"
           sodipodi:nodetypes="cc" />
        <path
           style="display:inline;fill:none;stroke:#dadada;stroke-width:1.5;stroke-linecap:butt;stroke-linejoin:miter;stroke-miterlimit:4;stroke-dasharray:none;stroke-opacity:1"
           d="m 103.47099,241.53198 -74.272333,0.18899"
           id="path860-3"
           inkscape:connector-curvature="0"
           sodipodi:nodetypes="cc" />
        <path
           style="display:inline;fill:none;stroke:#dadada;stroke-width:1.5;stroke-linecap:butt;stroke-linejoin:miter;stroke-miterlimit:4;stroke-dasharray:none;stroke-opacity:1"
           d="m 104.03795,231.32662 -74.272329,0.18899"
           id="path860-6"
           inkscape:connector-curvature="0"
           sodipodi:nodetypes="cc" />
        <path
           style="display:inline;fill:none;stroke:#dadada;stroke-width:1.5;stroke-linecap:butt;stroke-linejoin:miter;stroke-miterlimit:4;stroke-dasharray:none;stroke-opacity:1"
           d="m 103.65997,220.93227 -74.272326,0.18899"
           id="path860-7"
           inkscape:connector-curvature="0"
           sodipodi:nodetypes="cc" />
      </g>
      <path
         transform="matrix(2.3861802,0,0,2.3861802,-424.36662,-275.63686)"
         style="font-style:normal;font-variant:normal;font-weight:normal;font-stretch:normal;font-size:44.43936539px;line-height:1.25;font-family:'Misc Fixed Wide';-inkscape-font-specification:'Misc Fixed Wide';letter-spacing:0px;word-spacing:0px;display:inline;fill:#8e8e8e;fill-opacity:1;stroke:#dfd5db;stroke-width:0.99793386;stroke-miterlimit:4;stroke-dasharray:none;stroke-opacity:1;filter:url(#filter4948)"
         d="m 218.07066,209.08915 c 0,0 -4.04717,-5.64745 -4.99175,-6.90773 2.03387,0.6836 4.85627,1.32057 5.13746,-0.20791 0.51314,-2.78926 -1.45221,-4.41579 -3.24633,-4.9208 -1.79412,-0.50501 -5.22528,0.0246 -6.81619,1.72778 -1.34271,1.19734 -2.12202,3.249 -1.1697,4.91934 2.0222,3.92901 5.8745,6.79431 7.02127,11.19976 0.89741,3.03446 -0.4155,6.2851 -2.60528,8.4266 -2.02403,2.2584 -5.12788,3.44497 -8.41401,3.23093 -3.61203,-0.23527 -6.56787,-2.99913 -7.85173,-4.85041 -1.60942,-2.32073 -1.75904,-5.47973 -0.4815,-8.20656 1.26581,-2.70181 3.45509,-3.7188 6.43531,-3.86688 0.96797,1.75683 3.64547,1.5879 4.33862,3.42463 -1.89844,-0.15389 -4.58476,-0.18243 -6.03479,1.41984 -3.20959,4.19797 1.76342,7.59987 5.52103,7.38284 4.0804,-0.23567 5.65279,-3.98903 4.31571,-6.98655 -1.34014,-3.30217 -4.33022,-5.54567 -5.91449,-8.71079 -1.31092,-2.25587 -0.80716,-4.77097 0.11818,-6.70273 1.35057,-2.81948 4.71912,-5.08978 8.24979,-5.17615 5.10074,-0.12478 8.83887,2.69322 9.2794,6.68597 0.22715,2.05876 0.1374,3.30758 -1.35009,5.02168 -1.48749,1.7141 -1.27709,1.97459 -1.54091,3.09709 z"
         id="path5362-0"
         inkscape:connector-curvature="0"
         sodipodi:nodetypes="ccszccccssscccsccssszsc" />
    </g>
  </g>
</svg>
